<svg width="1200" height="628" viewBox="0 0 1200 628" fill="none" xmlns="http://www.w3.org/2000/svg">
<rect width="1200" height="628" fill="#F7F7F7"/>
<path d="M450.57 253.66L408.24 373H371.86L329.53 253.66H360.47L390.05 343.76L419.8 253.66H450.57ZM552.14 324.04C552.14 326.76 551.97 329.593 551.63 332.54H485.84C486.293 338.433 488.163 342.967 491.45 346.14C494.85 349.2 498.986 350.73 503.86 350.73C511.113 350.73 516.156 347.67 518.99 341.55H549.93C548.343 347.783 545.453 353.393 541.26 358.38C537.18 363.367 532.023 367.277 525.79 370.11C519.556 372.943 512.586 374.36 504.88 374.36C495.586 374.36 487.313 372.377 480.06 368.41C472.806 364.443 467.14 358.777 463.06 351.41C458.98 344.043 456.94 335.43 456.94 325.57C456.94 315.71 458.923 307.097 462.89 299.73C466.97 292.363 472.636 286.697 479.89 282.73C487.143 278.763 495.473 276.78 504.88 276.78C514.06 276.78 522.22 278.707 529.36 282.56C536.5 286.413 542.053 291.91 546.02 299.05C550.1 306.19 552.14 314.52 552.14 324.04ZM522.39 316.39C522.39 311.403 520.69 307.437 517.29 304.49C513.89 301.543 509.64 300.07 504.54 300.07C499.666 300.07 495.53 301.487 492.13 304.32C488.843 307.153 486.803 311.177 486.01 316.39H522.39ZM596.546 247.2V373H567.476V247.2H596.546ZM632.062 268.28C626.962 268.28 622.769 266.807 619.482 263.86C616.309 260.8 614.722 257.06 614.722 252.64C614.722 248.107 616.309 244.367 619.482 241.42C622.769 238.36 626.962 236.83 632.062 236.83C637.049 236.83 641.129 238.36 644.302 241.42C647.589 244.367 649.232 248.107 649.232 252.64C649.232 257.06 647.589 260.8 644.302 263.86C641.129 266.807 637.049 268.28 632.062 268.28ZM646.682 385.24C646.682 396.913 643.736 405.3 637.842 410.4C631.949 415.613 623.732 418.22 613.192 418.22H601.802V393.57H608.772C611.946 393.57 614.212 392.947 615.572 391.7C616.932 390.453 617.612 388.413 617.612 385.58V278.14H646.682V385.24ZM725.553 373L696.653 333.22V373H667.583V247.2H696.653V316.73L725.383 278.14H761.253L721.813 325.74L761.593 373H725.553ZM815.851 374.36C806.558 374.36 798.171 372.377 790.691 368.41C783.324 364.443 777.488 358.777 773.181 351.41C768.988 344.043 766.891 335.43 766.891 325.57C766.891 315.823 769.044 307.267 773.351 299.9C777.658 292.42 783.551 286.697 791.031 282.73C798.511 278.763 806.898 276.78 816.191 276.78C825.484 276.78 833.871 278.763 841.351 282.73C848.831 286.697 854.724 292.42 859.031 299.9C863.338 307.267 865.491 315.823 865.491 325.57C865.491 335.317 863.281 343.93 858.861 351.41C854.554 358.777 848.604 364.443 841.011 368.41C833.531 372.377 825.144 374.36 815.851 374.36ZM815.851 349.2C821.404 349.2 826.108 347.16 829.961 343.08C833.928 339 835.911 333.163 835.911 325.57C835.911 317.977 833.984 312.14 830.131 308.06C826.391 303.98 821.744 301.94 816.191 301.94C810.524 301.94 805.821 303.98 802.081 308.06C798.341 312.027 796.471 317.863 796.471 325.57C796.471 333.163 798.284 339 801.911 343.08C805.651 347.16 810.298 349.2 815.851 349.2Z" fill="url(#paint0_linear_185_22)"/>
<defs>
<linearGradient id="paint0_linear_185_22" x1="328" y1="312.48" x2="871" y2="312.48" gradientUnits="userSpaceOnUse">
<stop stop-color="#0258BD"/>
<stop offset="1" stop-color="#0B96E3"/>
</linearGradient>
</defs>
</svg>
